# Blender v2.92.0 OBJ File: 'gba-joined.blend'
# www.blender.org
mtllib gba.mtl
o GBA_Cube
v 2.194254 1.000000 0.177700
v 2.284254 -0.864258 0.177700
v 2.190913 0.999301 -0.257874
v 2.284761 -0.864258 -0.257874
v -2.194254 1.000000 0.177700
v -2.284254 -0.864258 0.177700
v -2.185142 1.000000 -0.257874
v -2.274727 -0.864258 -0.257874
v 1.175262 -1.303482 0.177700
v -1.175262 -1.294387 0.177700
v 1.175262 1.277887 -0.257874
v -1.175262 1.277887 -0.257874
v -1.175262 -1.294387 -0.257874
v 1.175262 -1.303482 -0.257874
v -1.175262 1.277887 0.177700
v 1.175262 1.277887 0.177700
v 1.125262 0.987701 0.177700
v -1.125262 0.987701 0.177700
v 1.175262 -0.839576 0.177700
v -1.175262 -0.839575 0.177700
v 0.000000 1.021356 0.177700
v 0.000000 -0.996347 0.177700
v 0.000000 0.833342 0.177700
v 0.000000 -0.528219 0.177700
v 1.004704 0.833342 0.177700
v 1.004704 -0.528219 0.177700
v -0.994497 0.833342 0.177700
v -1.021182 -0.528219 0.177700
v 2.187769 0.997176 -0.214009
v 2.142454 1.159096 -0.214009
v 2.187769 0.997176 0.132423
v 2.142454 1.159096 0.132423
v 1.247484 1.255571 -0.214009
v 1.247484 1.255571 0.132423
v -2.173595 1.010838 -0.214009
v -2.142159 1.158881 -0.214009
v -2.173595 1.010838 0.132423
v -2.142159 1.158881 0.132423
v -1.247188 1.255356 -0.214009
v -1.247188 1.255356 0.132423
v 1.488006 0.306481 0.175391
v 1.488006 0.306481 0.286087
v 1.607745 0.248818 0.175391
v 1.607745 0.248818 0.286087
v 1.637318 0.119250 0.175391
v 1.637318 0.119250 0.286087
v 1.554456 0.015344 0.175391
v 1.554456 0.015344 0.286087
v 1.421556 0.015344 0.175391
v 1.421556 0.015344 0.286087
v 1.338695 0.119250 0.175391
v 1.338695 0.119250 0.286087
v 1.368268 0.248818 0.175391
v 1.368268 0.248818 0.286087
v 1.922165 0.442805 0.176418
v 1.922165 0.442805 0.287114
v 2.041904 0.385142 0.176418
v 2.041904 0.385142 0.287114
v 2.071477 0.255574 0.176418
v 2.071477 0.255574 0.287114
v 1.988615 0.151669 0.176418
v 1.988615 0.151669 0.287114
v 1.855715 0.151669 0.176418
v 1.855715 0.151669 0.287114
v 1.772853 0.255574 0.176418
v 1.772853 0.255574 0.287114
v 1.802426 0.385142 0.176418
v 1.802426 0.385142 0.287114
v -1.652784 -0.029836 0.270284
v -1.652784 0.536116 0.270284
v -1.652784 -0.029836 0.159755
v -1.652784 0.536116 0.159755
v -1.823553 -0.029836 0.270284
v -1.823553 0.536116 0.270284
v -1.823553 -0.029836 0.159755
v -1.823553 0.536116 0.159755
v -1.455192 0.338524 0.270284
v -2.021144 0.338525 0.270285
v -1.455192 0.338524 0.159755
v -2.021144 0.338525 0.159755
v -1.455192 0.167755 0.270284
v -2.021144 0.167755 0.270285
v -1.455192 0.167755 0.159755
v -2.021144 0.167755 0.159755
v -1.652784 0.338524 0.270284
v -1.652784 0.338524 0.159755
v -1.823553 0.167755 0.159755
v -1.823553 0.167755 0.270284
v -1.823553 0.338524 0.270284
v -1.823553 0.167755 0.270284
v -1.823553 -0.029836 0.270284
v -1.823553 -0.029836 0.159755
v -1.823553 0.167755 0.159755
v -1.823553 0.536116 0.159755
v -1.823553 0.536116 0.270284
v -1.823553 0.338524 0.270284
v -2.021144 0.338525 0.270285
v -2.021144 0.338525 0.159755
v -1.652784 0.338524 0.159755
v -1.652784 0.338524 0.270284
v -1.455192 0.338524 0.159755
v -1.455192 0.338524 0.270284
v -1.447018 -0.317988 0.199467
v -1.447018 -0.317988 0.261928
v -1.379454 -0.350525 0.199467
v -1.379454 -0.350525 0.261928
v -1.362767 -0.423636 0.199467
v -1.362767 -0.423636 0.261928
v -1.409523 -0.482266 0.199467
v -1.409523 -0.482266 0.261928
v -1.484514 -0.482266 0.199467
v -1.484514 -0.482266 0.261928
v -1.531270 -0.423636 0.199467
v -1.531270 -0.423636 0.261928
v -1.514583 -0.350525 0.199467
v -1.514583 -0.350525 0.261928
v -1.447018 -0.581676 0.199467
v -1.447018 -0.581676 0.261928
v -1.379454 -0.614213 0.199467
v -1.379454 -0.614213 0.261928
v -1.362767 -0.687324 0.199467
v -1.362767 -0.687324 0.261928
v -1.409523 -0.745954 0.199467
v -1.409523 -0.745954 0.261928
v -1.484514 -0.745954 0.199467
v -1.484514 -0.745954 0.261928
v -1.531270 -0.687324 0.199467
v -1.531270 -0.687324 0.261928
v -1.514583 -0.614213 0.199467
v -1.514583 -0.614213 0.261928
vt 0.625000 0.500000
vt 0.418123 0.416667
vt 0.375000 0.500000
vt 0.625000 0.250000
vt 0.418123 0.333333
vt 0.596649 0.333333
vt 0.418123 0.375000
vt 0.375000 0.416667
vt 0.596649 0.375000
vt 0.625000 0.416667
vt 0.625000 0.333333
vt 0.596649 0.416667
vt 0.375000 0.333333
vt 0.375000 0.250000
vt 0.577339 0.375000
vt 0.462264 0.375000
vt 0.450463 0.410620
vt 0.581060 0.339742
vt 0.581096 0.410620
vt 0.450271 0.338796
vt 0.791667 0.500000
vt 0.791667 0.750000
vt 0.875000 0.750000
vt 0.375000 0.000000
vt 0.291667 0.500000
vt 0.291667 0.750000
vt 0.375000 0.750000
vt 0.625000 0.750000
vt 0.208333 0.500000
vt 0.125000 0.500000
vt 0.125000 0.750000
vt 0.208333 0.750000
vt 0.708333 0.500000
vt 0.708333 0.750000
vt 0.875000 0.500000
vt 0.625000 0.000000
vt 0.625000 0.916667
vt 0.375000 0.916667
vt 0.375000 1.000000
vt 0.375000 0.833333
vt 0.625000 0.833333
vt 0.625000 1.000000
vt 0.375000 0.250000
vt 0.875000 0.500000
vt 0.625000 0.500000
vt 0.375000 0.250000
vt 0.625000 0.500000
vt 0.875000 0.500000
vt 0.354132 0.033767
vt 0.016017 0.196595
vt 0.483983 0.196595
vt 0.000000 0.000000
vt 0.000000 0.000000
vt 0.000000 0.000000
vt 0.000000 0.000000
vt 0.000000 0.000000
vt 0.000000 0.000000
vt 0.000000 0.000000
vt 0.354132 0.033767
vt 0.016017 0.196595
vt 0.483983 0.196595
vt 0.000000 0.000000
vt 0.000000 0.000000
vt 0.000000 0.000000
vt 0.000000 0.000000
vt 0.000000 0.000000
vt 0.000000 0.000000
vt 0.000000 0.000000
vt 0.625000 0.750000
vt 0.537717 0.750000
vt 0.537717 1.000000
vt 0.375000 1.000000
vt 0.625000 0.750000
vt 0.537717 0.750000
vt 0.537717 1.000000
vt 0.375000 1.000000
vt 0.354132 0.033767
vt 0.016017 0.196595
vt 0.483983 0.196595
vt 0.000000 0.000000
vt 0.000000 0.000000
vt 0.000000 0.000000
vt 0.000000 0.000000
vt 0.000000 0.000000
vt 0.000000 0.000000
vt 0.000000 0.000000
vt 0.354132 0.033767
vt 0.016017 0.196595
vt 0.483983 0.196595
vt 0.000000 0.000000
vt 0.000000 0.000000
vt 0.000000 0.000000
vt 0.000000 0.000000
vt 0.000000 0.000000
vt 0.000000 0.000000
vt 0.000000 0.000000
vt 0.062360 0.399638
vt 0.437640 0.399638
vt 0.250000 0.490000
vt 0.145868 0.033767
vt 0.437640 0.399638
vt 0.062360 0.399638
vt 0.250000 0.490000
vt 0.145868 0.033767
vt 0.625000 1.000000
vt 0.375000 0.750000
vt 0.625000 1.000000
vt 0.375000 0.750000
vt 0.062360 0.399638
vt 0.437640 0.399638
vt 0.250000 0.490000
vt 0.145868 0.033767
vt 0.062360 0.399638
vt 0.437640 0.399638
vt 0.250000 0.490000
vt 0.145868 0.033767
vt 0.625000 0.250000
vt 0.625000 1.000000
vt 0.375000 1.000000
vt 0.625000 0.750000
vt 0.875000 0.750000
vt 0.375000 0.000000
vt 0.625000 0.000000
vt 0.625000 0.000000
vt 0.375000 0.000000
vt 0.625000 1.000000
vt 0.625000 0.250000
vt 0.625000 0.750000
vt 0.375000 1.000000
vt 0.875000 0.750000
vt 0.857143 0.500000
vt 1.000000 0.500000
vt 1.000000 1.000000
vt 0.857143 1.000000
vt 0.714286 1.000000
vt 0.714286 0.500000
vt 0.571429 1.000000
vt 0.428571 0.500000
vt 0.571429 0.500000
vt 0.285714 0.500000
vt 0.428571 1.000000
vt 0.142857 0.500000
vt 0.285714 1.000000
vt 0.000000 0.500000
vt 0.142857 1.000000
vt 0.857143 0.500000
vt 1.000000 0.500000
vt 1.000000 1.000000
vt 0.857143 1.000000
vt 0.714286 1.000000
vt 0.571429 0.500000
vt 0.714286 0.500000
vt 0.428571 0.500000
vt 0.571429 1.000000
vt 0.285714 0.500000
vt 0.428571 1.000000
vt 0.142857 0.500000
vt 0.285714 1.000000
vt 0.000000 0.500000
vt 0.142857 1.000000
vt 0.000000 1.000000
vt 0.000000 1.000000
vt 0.375000 0.500000
vt 0.125000 0.500000
vt 0.125000 0.750000
vt 0.625000 0.500000
vt 0.875000 0.750000
vt 0.375000 0.500000
vt 0.125000 0.500000
vt 0.125000 0.750000
vt 0.875000 0.500000
vt 0.625000 0.500000
vt 0.625000 0.250000
vt 0.625000 0.000000
vt 0.537717 0.000000
vt 0.375000 0.000000
vt 0.375000 0.250000
vt 0.537717 0.250000
vt 0.375000 0.750000
vt 0.462283 0.750000
vt 0.462283 0.500000
vt 0.625000 0.500000
vt 0.537717 0.750000
vt 0.625000 0.750000
vt 0.462283 0.250000
vt 0.537717 0.000000
vt 0.462283 0.000000
vt 0.375000 0.000000
vt 0.537717 0.500000
vt 0.875000 0.500000
vt 0.875000 0.750000
vt 0.375000 0.500000
vt 0.625000 0.250000
vt 0.625000 0.000000
vt 0.375000 0.250000
vt 0.857143 0.500000
vt 1.000000 0.500000
vt 1.000000 1.000000
vt 0.714286 0.500000
vt 0.857143 1.000000
vt 0.571429 0.500000
vt 0.714286 1.000000
vt 0.428571 0.500000
vt 0.571429 1.000000
vt 0.285714 0.500000
vt 0.428571 1.000000
vt 0.142857 0.500000
vt 0.285714 1.000000
vt 0.000000 0.500000
vt 0.142857 1.000000
vt 0.000000 1.000000
vt 0.857143 0.500000
vt 1.000000 0.500000
vt 1.000000 1.000000
vt 0.714286 0.500000
vt 0.857143 1.000000
vt 0.571429 0.500000
vt 0.714286 1.000000
vt 0.428571 0.500000
vt 0.571429 1.000000
vt 0.285714 0.500000
vt 0.428571 1.000000
vt 0.142857 0.500000
vt 0.285714 1.000000
vt 0.000000 0.500000
vt 0.142857 1.000000
vt 0.000000 1.000000
vn -0.0000 0.0000 1.0000
vn -0.2653 0.9642 0.0000
vn -0.9986 0.0482 -0.0218
vn 0.3682 -0.9297 0.0000
vn 0.9987 0.0503 0.0012
vn -0.3616 -0.9323 -0.0079
vn -0.0039 -1.0000 0.0000
vn 0.2631 0.9648 -0.0036
vn 0.0000 1.0000 0.0000
vn -0.2631 0.9648 -0.0055
vn -0.9986 0.0480 -0.0209
vn 0.3681 -0.9298 0.0004
vn 0.9988 0.0482 -0.0077
vn -0.3643 -0.9313 0.0000
vn 0.2645 0.9644 0.0000
vn -0.0000 0.0000 -1.0000
vn 0.6829 0.1835 0.7071
vn -0.2105 -0.6751 0.7071
vn -0.1616 -0.2324 -0.9591
vn -0.8564 -0.2397 0.4574
vn -0.9630 -0.2695 0.0000
vn 0.1072 0.9942 0.0000
vn -0.6273 0.7788 -0.0002
vn 0.5644 0.6503 -0.5084
vn -0.5500 -0.8351 0.0000
vn 0.4924 -0.7845 -0.3769
vn -0.1034 -0.9593 0.2629
vn -0.0022 -0.8019 -0.5975
vn -0.5902 0.8073 0.0000
vn -0.5197 -0.8384 0.1643
vn -0.7983 -0.1335 -0.5873
vn 0.6030 -0.7965 -0.0448
vn 0.7736 0.6278 0.0863
vn -0.1177 0.4205 -0.8996
vn 0.9630 0.2695 0.0000
vn -0.2211 -0.4876 0.8446
vn -0.2976 -0.9547 -0.0000
vn 0.9657 0.2596 0.0000
vn -0.2695 0.9630 -0.0000
vn -0.3316 -0.0928 0.9389
vn -0.0439 -0.7466 -0.6639
vn -0.9782 0.2077 0.0000
vn 0.9782 -0.2077 0.0000
vn -0.1072 0.9942 0.0000
vn 0.1072 -0.9942 0.0000
vn 0.4339 0.9010 0.0000
vn 0.9749 0.2225 0.0000
vn 0.7818 -0.6235 -0.0000
vn -0.0000 -1.0000 0.0000
vn -0.7818 -0.6235 0.0000
vn -0.9749 0.2225 0.0000
vn -0.4339 0.9010 0.0000
vn 1.0000 0.0000 0.0000
vn -1.0000 0.0000 0.0000
usemtl Material
s off
f 1/1/1 19/2/1 2/3/1
f 5/4/1 20/5/1 18/6/1
f 22/7/1 9/8/1 19/2/1
f 21/9/1 16/10/1 15/11/1
f 2/3/1 19/2/1 9/8/1
f 19/2/1 1/1/1 17/12/1
f 17/12/1 1/1/1 16/10/1
f 10/13/1 20/5/1 6/14/1
f 6/14/1 20/5/1 5/4/1
f 5/4/1 18/6/1 15/11/1
f 9/8/1 22/7/1 10/13/1
f 10/13/1 22/7/1 20/5/1
f 16/10/1 21/9/1 17/12/1
f 21/9/1 15/11/1 18/6/1
usemtl Material.006
f 23/15/1 24/16/1 26/17/1
f 24/16/1 23/15/1 27/18/1
f 23/15/1 26/17/1 25/19/1
f 24/16/1 27/18/1 28/20/1
usemtl Material.003
f 26/17/1 17/12/1 25/19/1
f 28/20/1 18/6/1 20/5/1
f 19/2/1 26/17/1 22/7/1
f 22/7/1 26/17/1 24/16/1
f 23/15/1 25/19/1 21/9/1
f 21/9/1 25/19/1 17/12/1
f 19/2/1 17/12/1 26/17/1
f 18/6/1 27/18/1 21/9/1
f 21/9/1 27/18/1 23/15/1
f 24/16/1 20/5/1 22/7/1
f 18/6/1 28/20/1 27/18/1
f 28/20/1 20/5/1 24/16/1
usemtl Material.001
f 15/21/2 12/22/2 7/23/2
f 8/24/3 6/14/3 5/4/3
f 2/3/4 9/25/4 14/26/4
f 2/3/5 4/27/5 3/28/5
f 10/29/6 6/30/6 8/31/6
f 9/25/7 10/29/7 13/32/7
f 16/33/8 1/1/8 3/28/8
f 15/21/9 16/33/9 11/34/9
f 15/21/10 7/23/10 5/35/10
f 8/24/11 5/4/11 7/36/11
f 2/3/12 14/26/12 4/27/12
f 2/3/13 3/28/13 1/1/13
f 10/29/14 8/31/14 13/32/14
f 9/25/7 13/32/7 14/26/7
f 16/33/15 3/28/15 11/34/15
f 15/21/9 11/34/9 12/22/9
usemtl Material.007
f 12/37/16 13/38/16 8/39/16
f 4/27/16 14/40/16 11/41/16
f 11/41/16 14/40/16 13/38/16
f 12/37/16 8/39/16 7/42/16
f 4/27/16 11/41/16 3/28/16
f 11/41/16 13/38/16 12/37/16
usemtl Material.005
f 31/43/1 32/44/17 34/45/18
f 37/46/1 40/47/1 38/48/1
f 48/49/16 52/50/16 46/51/16
f 44/52/1 42/53/1 46/54/1
f 52/55/1 46/54/1 54/56/1
f 52/55/1 48/57/1 46/54/1
f 50/58/1 48/57/1 52/55/1
f 46/54/1 42/53/1 54/56/1
f 62/59/16 66/60/16 60/61/16
f 58/62/1 56/63/1 60/64/1
f 66/65/1 60/64/1 68/66/1
f 66/65/1 62/67/1 60/64/1
f 64/68/1 62/67/1 66/65/1
f 60/64/1 56/63/1 68/66/1
f 74/69/1 89/70/1 85/71/1
f 69/72/1 85/71/1 89/70/1
f 82/73/1 88/74/1 89/75/1
f 77/76/1 89/75/1 88/74/1
f 110/77/16 114/78/16 108/79/16
f 106/80/1 104/81/1 108/82/1
f 114/83/1 108/82/1 116/84/1
f 114/83/1 110/85/1 108/82/1
f 112/86/1 110/85/1 114/83/1
f 108/82/1 104/81/1 116/84/1
f 124/87/16 128/88/16 122/89/16
f 120/90/1 118/91/1 122/92/1
f 128/93/1 122/92/1 130/94/1
f 128/93/1 124/95/1 122/92/1
f 126/96/1 124/95/1 128/93/1
f 122/92/1 118/91/1 130/94/1
f 46/51/16 54/97/16 44/98/16
f 44/98/16 54/97/16 42/99/16
f 54/97/16 46/51/16 52/50/16
f 52/50/16 48/49/16 50/100/16
f 60/61/16 66/60/16 58/101/16
f 58/101/16 68/102/16 56/103/16
f 66/60/16 68/102/16 58/101/16
f 66/60/16 62/59/16 64/104/16
f 74/69/1 85/71/1 70/105/1
f 69/72/1 89/70/1 73/106/1
f 82/73/1 89/75/1 78/107/1
f 77/76/1 88/74/1 81/108/1
f 108/79/16 116/109/16 106/110/16
f 106/110/16 116/109/16 104/111/16
f 116/109/16 108/79/16 114/78/16
f 114/78/16 110/77/16 112/112/16
f 122/89/16 130/113/16 120/114/16
f 120/114/16 130/113/16 118/115/16
f 130/113/16 122/89/16 128/88/16
f 128/88/16 124/87/16 126/116/16
usemtl Material.014
f 32/117/19 30/118/20 29/119/21
f 33/120/22 34/45/23 32/44/24
f 30/118/25 34/45/26 33/120/27
f 32/117/28 29/119/21 31/43/29
f 30/118/30 32/117/31 34/45/32
f 33/120/22 32/44/33 30/121/22
usemtl Material.016
f 31/43/34 29/122/35 30/123/36
f 33/120/37 30/123/38 29/122/16
f 31/43/39 30/123/40 32/117/41
usemtl Material.015
f 36/124/42 35/125/42 37/46/42
f 36/126/43 38/127/43 37/46/43
f 38/48/44 40/47/44 39/128/44
f 36/124/42 37/46/42 38/127/42
f 40/47/45 36/126/45 39/128/45
f 36/126/43 37/46/43 35/129/43
f 38/127/45 36/126/45 40/47/45
f 38/48/44 39/128/44 36/130/44
usemtl Material.017
f 39/128/16 35/125/16 36/124/16
usemtl Material.010
f 43/131/46 41/132/46 42/133/46
f 43/131/47 44/134/47 46/135/47
f 45/136/48 46/135/48 48/137/48
f 49/138/49 47/139/49 48/137/49
f 51/140/50 49/138/50 50/141/50
f 53/142/51 51/140/51 52/143/51
f 41/144/52 53/142/52 54/145/52
f 57/146/46 55/147/46 56/148/46
f 57/146/47 58/149/47 60/150/47
f 61/151/48 59/152/48 60/150/48
f 63/153/49 61/151/49 62/154/49
f 65/155/50 63/153/50 64/156/50
f 67/157/51 65/155/51 66/158/51
f 55/159/52 67/157/52 68/160/52
f 43/131/46 42/133/46 44/134/46
f 43/131/47 46/135/47 45/136/47
f 45/136/48 48/137/48 47/139/48
f 49/138/49 48/137/49 50/141/49
f 51/140/50 50/141/50 52/143/50
f 53/142/51 52/143/51 54/145/51
f 41/144/52 54/145/52 42/161/52
f 57/146/46 56/148/46 58/149/46
f 57/146/47 60/150/47 59/152/47
f 61/151/48 60/150/48 62/154/48
f 63/153/49 62/154/49 64/156/49
f 65/155/50 64/156/50 66/158/50
f 67/157/51 66/158/51 68/160/51
f 55/159/52 68/160/52 56/162/52
usemtl Material.011
f 75/163/49 71/164/49 69/165/49
f 76/166/9 74/69/9 70/167/9
f 83/168/53 79/169/53 77/170/53
f 80/171/54 84/172/54 82/73/54
f 72/173/53 70/174/53 85/175/53
f 69/176/53 71/177/53 86/178/53
f 91/179/54 90/180/54 93/181/54
f 94/182/54 96/183/54 95/184/54
f 99/185/9 96/186/9 100/187/9
f 99/185/9 100/187/9 102/188/9
f 84/172/49 87/189/49 88/74/49
f 81/108/49 88/74/49 87/189/49
f 75/163/49 69/165/49 73/106/49
f 76/166/9 70/167/9 72/190/9
f 83/168/53 77/170/53 81/108/53
f 80/171/54 82/73/54 78/191/54
f 72/173/53 85/175/53 86/178/53
f 69/176/53 86/178/53 85/175/53
f 91/179/54 93/181/54 92/192/54
f 96/183/54 93/181/54 90/180/54
f 93/181/54 96/183/54 94/182/54
f 96/186/9 98/193/9 97/194/9
f 98/193/9 96/186/9 99/185/9
f 99/185/9 102/188/9 101/195/9
f 84/172/49 88/74/49 82/73/49
f 81/108/49 87/189/49 83/168/49
usemtl Material.013
f 105/196/46 103/197/46 104/198/46
f 107/199/47 105/196/47 106/200/47
f 109/201/48 107/199/48 108/202/48
f 111/203/49 109/201/49 110/204/49
f 113/205/50 111/203/50 112/206/50
f 115/207/51 113/205/51 114/208/51
f 103/209/52 115/207/52 116/210/52
f 105/196/46 104/198/46 106/200/46
f 107/199/47 106/200/47 108/202/47
f 109/201/48 108/202/48 110/204/48
f 111/203/49 110/204/49 112/206/49
f 113/205/50 112/206/50 114/208/50
f 115/207/51 114/208/51 116/210/51
f 103/209/52 116/210/52 104/211/52
usemtl Material.012
f 119/212/46 117/213/46 118/214/46
f 121/215/47 119/212/47 120/216/47
f 123/217/48 121/215/48 122/218/48
f 125/219/49 123/217/49 124/220/49
f 127/221/50 125/219/50 126/222/50
f 129/223/51 127/221/51 128/224/51
f 117/225/52 129/223/52 130/226/52
f 119/212/46 118/214/46 120/216/46
f 121/215/47 120/216/47 122/218/47
f 123/217/48 122/218/48 124/220/48
f 125/219/49 124/220/49 126/222/49
f 127/221/50 126/222/50 128/224/50
f 129/223/51 128/224/51 130/226/51
f 117/225/52 130/226/52 118/227/52
